# xmcd CD database file
#
# Track frame offsets:
#	150
#	11237
#	25216
#	38322
#	51728
#	64525
#	78466
#	92883
#	109698
#	122911
#	135122
#	146268
#	159732
#	175005
#
# Disc length: 2499 seconds
#
# Revision: 1
# Processed by: cddbd v1.5.2PL0 Copyright (c) Steve Scherf et al.
# Submitted via: CDex 1.70beta2
#
DISCID=b109c10e
DTITLE=Robert Crumb And His Cheap Suit Serenaders - Robert Crumb And His Cheap Suit Serenaders
DYEAR=1974
DGENRE=Blues
TTITLE0=Laughing Rag
TTITLE1=True Blue Lou
TTITLE2=Little Rascals Medley
TTITLE3=Willie The Chimney Sweeper
TTITLE4=Kiwi Bump
TTITLE5=Cuckoo Waltz
TTITLE6=Sweet Lorraine
TTITLE7=I'm Gonna Get It
TTITLE8=Lucille
TTITLE9=I Had But Fifty Cents
TTITLE10=Down In Jungle Town
TTITLE11=Get A Load Of This
TTITLE12=Cheap Suit Special
TTITLE13=I'll See You In My Dreams
EXTD=YEAR: 1974
EXTT0=
EXTT1=
EXTT2=
EXTT3=
EXTT4=
EXTT5=
EXTT6=
EXTT7=
EXTT8=
EXTT9=
EXTT10=
EXTT11=
EXTT12=
EXTT13=
PLAYORDER=
